<svg width="59" height="59" viewBox="0 0 59 59" fill="none" xmlns="http://www.w3.org/2000/svg">
<path d="M9.83334 9.83334H15.6468C16.3967 9.83334 16.7717 9.83334 17.043 10.0451C17.3142 10.2569 17.4052 10.6207 17.5871 11.3483L18.9092 16.6368C19.273 18.0919 19.4549 18.8195 19.9974 19.2431C20.5399 19.6667 21.2899 19.6667 22.7898 19.6667H24.5833" stroke="white" stroke-width="2" stroke-linecap="round"/>
<path d="M44.25 41.7917H17.5249C16.2586 41.7917 15.6255 41.7917 15.3262 41.3764C15.0269 40.9611 15.2271 40.3605 15.6275 39.1592L16.2966 37.1517C16.7366 35.8317 16.9567 35.1717 17.4804 34.7942C18.0042 34.4167 18.6999 34.4167 20.0914 34.4167H34.4167" stroke="white" stroke-width="2" stroke-linecap="round" stroke-linejoin="round"/>
<path d="M39.3195 34.4167H23.0552C21.4368 34.4167 20.6277 34.4167 20.0682 33.9427C19.5087 33.4687 19.3757 32.6706 19.1096 31.0743L17.7905 23.1599C17.5203 21.5383 17.3852 20.7275 17.8345 20.1971C18.2839 19.6667 19.1058 19.6667 20.7497 19.6667H45.9306C47.381 19.6667 48.1062 19.6667 48.3993 20.1409C48.6924 20.6152 48.3681 21.2638 47.7195 22.5611L42.8973 32.2055C42.3593 33.2813 42.0904 33.8193 41.6071 34.118C41.1238 34.4167 40.5224 34.4167 39.3195 34.4167Z" stroke="white" stroke-width="2" stroke-linecap="round"/>
<circle cx="41.7916" cy="49.1667" r="2.45833" fill="white"/>
<circle cx="22.125" cy="49.1667" r="2.45833" fill="white"/>
</svg>
